<svg width="431" height="278" viewBox="0 0 431 278" fill="none" xmlns="http://www.w3.org/2000/svg">
<path d="M402.733 6.11865H161.524V7.19004H402.733V6.11865Z" fill="#CBCBCB"/>
<path d="M194.915 6.52246H193.845V40.573H194.915V6.52246Z" fill="#CBCBCB"/>
<path d="M282.678 67.5632H227.541V6.48877H228.611V66.4918H282.678V67.5632Z" fill="#CBCBCB"/>
<path d="M264.85 6.52246H263.78V40.573H264.85V6.52246Z" fill="#CBCBCB"/>
<path d="M282.805 67.0557H281.735V101.106H282.805V67.0557Z" fill="#CBCBCB"/>
<path d="M338.215 6.52246H337.145V40.573H338.215V6.52246Z" fill="#CBCBCB"/>
<path d="M374.898 6.52246H373.828V40.573H374.898V6.52246Z" fill="#CBCBCB"/>
<path d="M204.669 45.7812H184.349V53.7077H204.669V45.7812Z" fill="#FF7B7B"/>
<path d="M274.227 45.7812H253.907V53.7077H274.227V45.7812Z" fill="#65A4B8"/>
<path d="M348.066 45.7812H327.745V53.7077H348.066V45.7812Z" fill="#CBCBCB"/>
<path d="M383.38 45.7812H363.059V53.7077H383.38V45.7812Z" fill="#464640"/>
<path d="M431 2.92578H410.679V10.8523H431V2.92578Z" fill="#3F3D56"/>
<path d="M292.419 105.779H272.099V113.705H292.419V105.779Z" fill="#3F3D56"/>
<path d="M154.615 0H122.04V12.7068H154.615V0Z" fill="#464640"/>
<path d="M51.1445 129.184L53.2725 148.403L80.4541 148.872L77.1736 125.881L51.1445 129.184Z" fill="#FFB7B7"/>
<path d="M38.898 171.93C39.3098 171.437 39.6085 170.858 39.773 170.237C39.9375 169.615 39.9638 168.965 39.8501 168.332C39.7364 167.699 39.4855 167.098 39.115 166.573C38.7444 166.047 38.2633 165.609 37.7055 165.29L38.9673 155.316L33.1 153.07L31.5158 167.181C31.0423 168.154 30.9421 169.268 31.2341 170.311C31.526 171.354 32.1898 172.253 33.0998 172.838C34.0098 173.424 35.1026 173.655 36.1712 173.487C37.2399 173.32 38.2101 172.766 38.898 171.93V171.93Z" fill="#FFB7B7"/>
<path d="M88.3287 271.83H94.0747L96.8078 249.642L88.3276 249.643L88.3287 271.83Z" fill="#FFB7B7"/>
<path d="M86.8633 269.953L98.1784 269.952H98.1789C100.091 269.952 101.925 270.713 103.278 272.067C104.63 273.421 105.39 275.257 105.39 277.171V277.406L86.8636 277.407L86.8633 269.953Z" fill="#2F2E41"/>
<path d="M22.7179 271.83H28.4634L31.1965 249.642L22.7168 249.643L22.7179 271.83Z" fill="#FFB7B7"/>
<path d="M21.252 269.953L32.5671 269.952H32.5676C34.48 269.952 36.314 270.713 37.6663 272.067C39.0185 273.421 39.7783 275.257 39.7784 277.171V277.406L21.2523 277.407L21.252 269.953Z" fill="#2F2E41"/>
<path d="M30.9885 164.143L33.5155 134.875L40.8878 108.143C41.4355 106.188 42.5593 104.444 44.1124 103.138C45.6655 101.832 47.5758 101.025 49.5939 100.823L49.8344 100.8L51.1443 120.864L41.7164 140.259L38.6002 163.528L30.9885 164.143Z" fill="#464640"/>
<path d="M52.8416 137.22L48.9715 144.194C48.9715 144.194 33.8781 159.471 32.7171 183.07L18.7048 263.392L31.6912 263.071L57.9845 187.789L76.5822 219.732L85.881 261.466L100.631 258.737L94.0576 210.261L81.3919 165.157L80.1093 140.598L52.8416 137.22Z" fill="#2F2E41"/>
<path d="M66.2537 91.1157C72.6108 91.1157 77.7643 85.9562 77.7643 79.5915C77.7643 73.2269 72.6108 68.0674 66.2537 68.0674C59.8966 68.0674 54.7432 73.2269 54.7432 79.5915C54.7432 85.9562 59.8966 91.1157 66.2537 91.1157Z" fill="#FFB7B7"/>
<path d="M20.8189 105.766C22.9573 101.584 23.6872 96.8354 25.3331 92.4355C26.9791 88.0356 29.9694 83.6703 34.5031 82.4577C37.0748 81.7699 39.8075 82.1897 42.4491 81.8623C44.7718 81.5743 47.2725 80.3871 48.162 78.3218C47.9832 76.2744 48.2386 74.2123 48.9114 72.2707C50.5684 67.557 54.5199 63.836 59.1265 61.9124C62.8684 60.3498 67.1776 59.9084 70.9989 61.2654C74.8202 62.6223 78.0277 65.9387 78.7147 69.9393C79.4016 73.9399 77.1989 78.4071 73.4012 79.8281C70.6744 80.8484 67.1627 80.5087 65.3822 82.8145C63.5785 85.1503 64.8714 88.5545 66.5096 91.0096L66.3977 91.1235C61.0469 91.1863 55.2629 90.1511 51.5776 86.2669C51.1775 85.8428 50.8095 85.3895 50.4766 84.9107C50.3638 85.092 50.2455 85.2689 50.1183 85.4378C48.2624 87.9051 45.3572 89.3047 42.5892 90.6683C39.821 92.0319 36.9503 93.5623 35.2878 96.1641C32.2834 100.866 34.2555 107.198 32.5375 112.508C31.7727 114.872 30.2981 116.942 28.3148 118.436C26.3316 119.93 23.9364 120.774 21.4559 120.855C18.9754 120.935 16.5305 120.248 14.4547 118.886C12.379 117.524 10.7736 115.554 9.85742 113.244C14.534 113.636 18.6804 109.949 20.8189 105.766Z" fill="#2F2E41"/>
<path d="M94.5263 171.548C94.6633 170.92 94.661 170.269 94.5196 169.641C94.3782 169.014 94.1011 168.425 93.7078 167.917C93.3145 167.408 92.8147 166.992 92.2434 166.698C91.6721 166.403 91.0434 166.238 90.4014 166.213L86.9119 156.786L80.6724 157.511L85.7869 170.756C85.817 171.838 86.2426 172.872 86.9832 173.661C87.7238 174.451 88.7278 174.941 89.8051 175.038C90.8823 175.136 91.9579 174.835 92.828 174.191C93.6982 173.548 94.3024 172.608 94.5263 171.548V171.548Z" fill="#FFB7B7"/>
<path d="M51.0206 140.056L47.6897 124.012L46.643 111.792C46.05 104.861 47.9851 97.949 52.09 92.3363L53.1547 90.8804L71.0813 97.2596L79.8208 108.794C85.1542 114.163 80.9787 119.303 80.3966 119.965L80.2177 136.177L80.0164 136.204L51.0206 140.056Z" fill="#464640"/>
<path d="M84.0302 168.19L70.6988 137.434L68.7617 109.257L68.3712 103.335C68.2746 101.87 68.7505 100.425 69.6983 99.3042C70.6461 98.1838 71.9917 97.476 73.451 97.3302C74.9103 97.1845 76.3691 97.6121 77.5193 98.5229C78.6696 99.4338 79.4213 100.756 79.6158 102.212L83.8123 133.623L91.0358 164.959L84.0302 168.19Z" fill="#464640"/>
<path d="M187.653 278H1.34694C1.25492 278 1.16668 277.947 1.10162 277.854C1.03655 277.76 1 277.633 1 277.5C1 277.367 1.03655 277.24 1.10162 277.146C1.16668 277.053 1.25492 277 1.34694 277H187.653C187.745 277 187.833 277.053 187.898 277.146C187.963 277.24 188 277.367 188 277.5C188 277.633 187.963 277.76 187.898 277.854C187.833 277.947 187.745 278 187.653 278Z" fill="#CBCBCB"/>
</svg>
